<mxfile host="app.diagrams.net" modified="2023-07-25T08:20:42.517Z" agent="Mozilla/5.0 (Windows NT 10.0; Win64; x64) AppleWebKit/537.36 (KHTML, like Gecko) Chrome/115.0.0.0 Safari/537.36" etag="jUWP-jiGpiafCq9_moWh" version="21.6.5" type="github">
  <diagram name="第 1 页" id="Zl2NUL5gu00z_4ef21Sr">
    <mxGraphModel dx="1244" dy="798" grid="1" gridSize="10" guides="1" tooltips="1" connect="1" arrows="1" fold="1" page="1" pageScale="1" pageWidth="827" pageHeight="1169" math="0" shadow="0">
      <root>
        <mxCell id="0" />
        <mxCell id="1" parent="0" />
        <mxCell id="z9Lq9DkYFOEhCAtS1ySL-4" value="" style="edgeStyle=orthogonalEdgeStyle;rounded=0;orthogonalLoop=1;jettySize=auto;html=1;" edge="1" parent="1" source="z9Lq9DkYFOEhCAtS1ySL-1" target="z9Lq9DkYFOEhCAtS1ySL-3">
          <mxGeometry relative="1" as="geometry" />
        </mxCell>
        <mxCell id="z9Lq9DkYFOEhCAtS1ySL-1" value="DTS" style="rounded=0;whiteSpace=wrap;html=1;" vertex="1" parent="1">
          <mxGeometry x="40" y="350" width="120" height="60" as="geometry" />
        </mxCell>
        <mxCell id="z9Lq9DkYFOEhCAtS1ySL-8" value="" style="edgeStyle=orthogonalEdgeStyle;rounded=0;orthogonalLoop=1;jettySize=auto;html=1;" edge="1" parent="1" source="z9Lq9DkYFOEhCAtS1ySL-3" target="z9Lq9DkYFOEhCAtS1ySL-7">
          <mxGeometry relative="1" as="geometry" />
        </mxCell>
        <mxCell id="z9Lq9DkYFOEhCAtS1ySL-3" value="DTB" style="rounded=0;whiteSpace=wrap;html=1;" vertex="1" parent="1">
          <mxGeometry x="240" y="350" width="120" height="60" as="geometry" />
        </mxCell>
        <mxCell id="z9Lq9DkYFOEhCAtS1ySL-5" value="DTC" style="text;html=1;strokeColor=none;fillColor=none;align=center;verticalAlign=middle;whiteSpace=wrap;rounded=0;" vertex="1" parent="1">
          <mxGeometry x="170" y="350" width="60" height="30" as="geometry" />
        </mxCell>
        <mxCell id="z9Lq9DkYFOEhCAtS1ySL-7" value="BootLoader" style="whiteSpace=wrap;html=1;rounded=0;" vertex="1" parent="1">
          <mxGeometry x="440" y="350" width="120" height="60" as="geometry" />
        </mxCell>
      </root>
    </mxGraphModel>
  </diagram>
</mxfile>
